<?xml version="1.0" standalone="no"?>
<!DOCTYPE svg PUBLIC "-//W3C//DTD SVG 20010904//EN"
 "http://www.w3.org/TR/2001/REC-SVG-20010904/DTD/svg10.dtd">
<svg version="1.0" xmlns="http://www.w3.org/2000/svg"
 width="442.000000pt" height="442.000000pt" viewBox="0 0 442.000000 442.000000"
 preserveAspectRatio="xMidYMid meet">
<metadata>
Created by potrace 1.11, written by Peter Selinger 2001-2013
</metadata>
<g transform="translate(0.000000,442.000000) scale(0.100000,-0.100000)"
fill="#000000" stroke="none">
<path d="M2305 3860 c-83 -33 -178 -93 -202 -129 -60 -88 -2 -224 129 -302
158 -95 256 -293 285 -580 16 -156 3 -476 -20 -491 -7 -5 -30 -13 -52 -18
-130 -33 -337 -128 -416 -191 -50 -39 -69 -76 -74 -142 -4 -58 15 -112 58
-160 19 -21 37 -29 74 -34 70 -8 113 15 146 76 25 44 25 49 11 77 -8 16 -29
40 -47 54 l-31 25 34 7 c47 9 72 14 190 42 68 16 100 20 101 12 0 -6 3 -38 7
-71 14 -126 7 -469 -12 -561 -2 -12 -7 -39 -10 -60 -39 -241 -169 -453 -325
-530 -67 -33 -81 -56 -81 -137 0 -70 18 -121 58 -167 43 -51 66 -63 178 -89
121 -28 189 -28 234 2 19 12 36 27 36 32 12 81 12 100 -1 131 -8 19 -20 34
-27 35 -7 0 -21 2 -30 4 -10 2 -55 -7 -100 -19 -114 -30 -167 -26 -188 14 -8
15 -5 23 16 39 15 12 34 21 43 22 9 0 36 3 61 7 60 9 389 8 570 -2 288 -15
540 -15 645 0 267 40 474 167 599 367 91 145 125 266 120 428 -3 115 -5 138
-29 254 -21 102 -35 133 -89 209 -133 184 -339 330 -510 360 -16 3 -31 8 -34
11 -10 10 46 51 171 127 145 88 197 133 238 206 17 31 46 84 65 118 61 111 73
201 43 342 -17 84 -76 179 -161 262 -74 72 -207 136 -323 156 -94 15 -293 11
-420 -11 -54 -9 -279 -43 -325 -50 -25 -3 -120 -8 -212 -11 -129 -3 -183 -1
-244 12 -76 15 -179 56 -218 86 -19 15 -18 16 10 54 36 49 43 54 74 54 16 0
34 -11 50 -32 81 -103 111 -110 183 -44 67 60 72 96 22 156 -52 64 -55 65
-141 68 -59 1 -92 -4 -129 -18z m1045 -482 c79 -39 168 -141 179 -206 3 -20 6
-94 6 -163 l0 -126 -42 -84 c-42 -82 -132 -204 -178 -241 -25 -19 -248 -128
-263 -128 -5 0 -9 6 -10 13 -19 252 -20 313 -9 447 15 174 68 334 155 468 9
13 25 28 36 32 27 10 94 4 126 -12z m-60 -1134 c163 -48 299 -210 345 -409 21
-92 27 -292 13 -405 -29 -222 -68 -316 -174 -413 -91 -83 -211 -113 -294 -74
-46 22 -113 189 -126 317 -3 25 -9 67 -14 95 -4 27 -6 167 -4 310 5 382 5 446
-1 490 -7 50 -2 56 60 83 60 26 122 28 195 6z"/>
<path d="M830 3805 c-60 -16 -98 -36 -201 -107 -225 -153 -352 -348 -408 -625
-46 -226 -24 -440 61 -593 41 -75 137 -185 224 -260 39 -34 172 -130 180 -130
3 0 24 -13 47 -29 23 -16 125 -72 227 -126 363 -190 442 -248 499 -368 41 -85
43 -99 47 -284 4 -161 4 -163 -22 -204 -65 -103 -167 -167 -280 -175 -201 -16
-245 -11 -342 37 -118 58 -201 161 -282 354 -60 140 -54 126 -121 280 -81 188
-154 289 -214 301 -40 7 -118 -28 -147 -66 -26 -36 -29 -110 -7 -160 22 -48
87 -84 136 -74 28 5 31 3 51 -47 50 -119 66 -222 65 -429 0 -240 -8 -326 -42
-422 -17 -49 -31 -103 -31 -121 0 -36 24 -77 44 -77 28 0 66 43 80 88 35 120
81 181 161 218 66 31 164 28 340 -12 170 -38 260 -51 347 -49 86 2 104 5 160
33 303 149 485 370 563 684 74 300 2 556 -219 773 -90 89 -276 216 -466 318
-338 180 -481 268 -545 334 -34 36 -94 149 -122 233 -28 84 -26 259 4 323 32
70 128 161 210 199 57 27 79 32 144 32 69 0 85 -4 151 -37 164 -81 231 -209
273 -522 19 -139 29 -181 61 -250 12 -27 34 -79 47 -115 44 -116 76 -162 133
-196 34 -20 53 -25 81 -21 53 8 75 17 97 41 22 24 66 114 66 135 0 30 -50 99
-85 115 -37 18 -111 23 -163 11 -28 -6 -30 -4 -34 32 -3 21 -5 110 -5 198 0
181 21 344 78 620 12 55 23 108 24 118 2 9 7 22 10 27 13 21 -47 9 -73 -15
-15 -14 -47 -35 -72 -46 -63 -30 -161 -24 -345 22 -44 11 -93 22 -110 24 -16
3 -42 8 -58 11 -56 11 -173 11 -217 -1z"/>
</g>
</svg>
